# xmcd CD database file
#
# Track frame offsets:
#	150
#	21463
#	39233
#	54939
#	77823
#	93030
#	108151
#	128827
#	146642
#	169773
#	196275
#
# Disc length: 2844 seconds
#
# Revision: 1
# Processed by: cddbd v1.5.2PL0 Copyright (c) Steve Scherf et al.
# Submitted via: CDex 1.70beta3
#
DISCID=860b1a0b
DTITLE=House Of Lords - The Power And The Myth
DYEAR=2004
DGENRE=Hard Rock
TTITLE0=Today
TTITLE1=All Is Gone
TTITLE2=Am I The Only One
TTITLE3=Living In Silence
TTITLE4=The Power And The Myth
TTITLE5=The Rapture
TTITLE6=The Man Who I Am
TTITLE7=Bitter Sweet Euphoria
TTITLE8=Mind Trip
TTITLE9=Child Of Rage
TTITLE10=Havana (Bonus Tracks)
EXTD=YEAR: 2004
EXTT0=
EXTT1=
EXTT2=
EXTT3=
EXTT4=
EXTT5=
EXTT6=
EXTT7=
EXTT8=
EXTT9=
EXTT10=
PLAYORDER=
